<svg xmlns="http://www.w3.org/2000/svg" viewBox="0 0 256 256"><defs><linearGradient id="linear-gradient" x1="221.467" x2="34.533" y1="232.421" y2="531.579" gradientTransform="translate(0 -254)" gradientUnits="userSpaceOnUse"><stop offset="0" stop-color="#1066b1"/><stop offset="1" stop-color="#7c3b97"/></linearGradient><style>.st0{fill:#f15a24}.st3{mix-blend-mode:multiply}</style></defs><g style="isolation:isolate"><g id="Layer_2"><g id="Moldura"><path d="M0 0h256v256H0V0Z" style="fill:url(#linear-gradient)"/><path d="M230.8 15.5H25.2c-5.3 0-9.7 4.3-9.7 9.7v205.6c0 5.3 4.3 9.7 9.7 9.7h205.6c5.3 0 9.7-4.3 9.7-9.7V25.2c0-5.4-4.3-9.7-9.7-9.7Z" style="fill:#fff"/></g></g><g id="Layer_1"><g class="st3"><path d="M199.995 130.179h4.186v34.331h-4.186v-34.331Z" class="st0"/></g><g class="st3"><path d="m188.271 157.736-2.094-3.628 11.725-6.769-11.725-6.768 2.094-3.624 18.009 10.392-2.974 1.72-15.035 8.677Z" class="st0"/></g><g class="st3"><path d="m215.907 157.736-18.005-10.397 18.005-10.392 2.093 3.624-11.72 6.768 11.72 6.769-2.093 3.628Z" class="st0"/></g><path d="m47.078 114.207-3.444 3.048v8.078H38V91.006h5.634v19.826L55.06 100.62h7.447l-11.213 10.143 11.268 14.57h-7.004l-8.479-11.126h-.001ZM91.82 100.62v24.713h-5.63v-5.349c-2.024 3.906-5.583 5.833-9.737 5.833-6.128 0-10.144-3.855-10.144-10.273V100.62h5.658v13.48c0 4.224 2.19 6.455 6.344 6.455 4.813 0 7.88-3.638 7.88-10.485v-9.451h5.63l-.001.001Zm30.523 24.713h-5.634v-3.85a12.778 12.778 0 0 1-9.406 4.334c-5.307 0-9.245-2.942-9.245-7.705s3.993-7.543 10.554-7.543h8.097v-.46c0-3.053-2.186-5.03-5.851-5.03-3.339 0-5.58 1.382-6.073 4.116h-5.634c.655-5.422 5.196-9.06 11.697-9.06 7.276 0 11.486 4.122 11.486 10.167l.009 15.03v.001Zm-5.634-10.646h-7.839c-3.282 0-5.034 1.23-5.034 3.32 0 1.927 1.586 3.102 4.269 3.102 2.84 0 6.123-1.604 8.585-4.389l.019-2.033Zm38.341 10.646h-5.634V111.85c0-4.223-2.13-6.524-6.233-6.524-4.869 0-7.986 3.689-7.986 10.54v9.466h-5.634V100.62h5.634v5.348c2.024-3.85 5.58-5.832 9.77-5.832 6.128 0 10.065 3.688 10.065 10.272l.019 14.925h-.001Zm29.108-9.148c0 5.46-3.716 9.632-9.683 9.632-6.404 0-10.143-3.8-10.143-10.374v-10.01h-5.45v-4.813h5.45v-9.614h5.634v9.614h11.702v4.813h-11.683v9.738c0 3.638 1.475 5.454 4.486 5.454 2.457 0 4.099-1.872 4.099-4.44h5.588Zm17.931-16.049c8.04 0 14.168 5.191 14.168 12.84 0 8.027-6.127 12.84-14.168 12.84s-14.22-4.813-14.22-12.84c0-7.649 6.179-12.84 14.22-12.84Zm0 5.191c-5.03 0-8.369 3.103-8.369 7.65s3.348 7.648 8.369 7.648 8.35-3.103 8.35-7.649-3.37-7.649-8.35-7.649ZM47.078 153.38l-3.444 3.047v8.078H38v-34.308h5.634v19.826l11.425-10.236h7.447l-11.213 10.144 11.268 14.55h-7.004l-8.479-11.102v.001Zm44.742-13.593v24.718h-5.63v-5.348c-2.024 3.905-5.583 5.832-9.737 5.832-6.128 0-10.144-3.855-10.144-10.273v-14.929h5.658v13.463c0 4.228 2.19 6.455 6.344 6.455 4.813 0 7.88-3.638 7.88-10.484v-9.434h5.63-.001Zm12.034 16.853c.221 2.355 1.969 3.688 6.072 3.688s5.533-.923 5.533-3.048c0-1.872-1.913-2.305-6.234-2.89a40.05 40.05 0 0 1-5.468-1.015c-2.845-.803-5.251-2.73-5.251-6.584 0-4.652 3.992-7.488 10.83-7.488s11.066 3.315 11.32 8.3h-5.75c-.277-2.19-2.024-3.639-5.58-3.639s-5.195.964-5.195 2.891 1.802 2.246 6.178 2.836c1.867.212 3.711.548 5.533 1.014 2.844.696 5.251 2.679 5.251 6.584 0 4.975-3.771 7.705-11.158 7.705s-11.595-2.997-11.812-8.35h5.731v-.005.001Zm44.802-1.283c0 5.455-3.716 9.632-9.683 9.632-6.4 0-10.115-3.8-10.115-10.383v-10h-5.478v-4.819h5.473v-9.59h5.634v9.59h11.702v4.818h-11.702v9.733c0 3.638 1.476 5.46 4.482 5.46 2.462 0 4.103-1.873 4.103-4.44h5.584v-.001Zm28.766 9.148h-5.635v-3.85a12.778 12.778 0 0 1-9.405 4.334c-5.307 0-9.222-2.946-9.222-7.704s3.993-7.543 10.554-7.543h8.096v-.462c0-3.047-2.185-5.03-5.85-5.03-3.339 0-5.58 1.383-6.073 4.122h-5.657c.66-5.404 5.196-9.041 11.706-9.041 7.276 0 11.486 4.117 11.486 10.143v15.031Zm-5.635-10.646h-7.838c-3.282 0-5.035 1.23-5.035 3.315 0 1.927 1.587 3.103 4.27 3.103 2.845 0 6.123-1.605 8.585-4.385l.018-2.033Z"/></g></g></svg>