<svg xmlns="http://www.w3.org/2000/svg" viewBox="0 0 100 100"><path d="M82.5 26.9c-2.3-1.8-6.5 1-9 2.4-1.3.7-8.1 4.4-13.7 10.7-9.5 10.8-10.1 17.3-10.1 17.3L46.9 56s2-9.7-1.4-21.3c-2.2-7.5-5.7-15.1-10.4-21.6-4.4-6.2-9-10.7-10.8-12.2-1.3-1-2.9-1.1-3.7-.6-2.5 1.4-2.5 5.2-2.5 8.2-.1 6.5-.4 17.9 6.1 33.2C28.7 52.3 36 58.5 36 58.5S28 63 22.5 74.3c-6.3 12.9-7 24.4-5 25.2 2.7 1.2 3.7.1 7.1-2.4 2.4-1.7 6.8-5 11.7-11.9s6.9-13.1 6.9-13.1 3 8.3 9.8 16.4c6.8 7.9 15.5 13.1 17.8 11 1.9-1.7 1.1-3.4.7-5.2-.5-2.7-2.7-9.3-5.8-16.2-3.4-7.4-8.3-13.5-8.3-13.5s10-4.2 17.7-15.5c3.7-5.4 5.5-10 6.7-13.5 2.1-5.8 2.1-7.6.7-8.7zM40.2 67.1c-1.5 5.1-3 7.6-4.6 10.5-1.5 2.8-5 7.2-8.3 10.6-2.1 2.1-3.7 3.7-4.8 3-.9-.6-.5-2.3.1-4.9 1.3-5.2 3.9-10.8 5.1-13.1 1-1.9 3.8-5.9 6.6-8.8 1.3-1.4 4.6-4.5 6-3.7 1.3.6.2 5.5-.1 6.4zm1.2-14c-3 1.2-9.3-8.2-13.4-18.6-2.2-5.5-3.6-12.8-4-18.2-.3-4.1-.6-7.2 1-7.7 1.8-.6 3.2 2.3 5.8 5.8 2.9 3.9 6 9.2 7.6 13.2 5.5 14 4.7 24.9 3 25.5zm17.2 18.5c2.8 4.4 10 17.9 7.8 19.6C64.5 92.7 56 83.7 52 78c-3.1-4.6-8.4-16.8-6.4-17.9 1.9-1.2 8.5 4.5 13 11.5zM77 36.1c-1.5 3.5-4.6 8.5-6.8 11.7C66.6 53 56.6 60.9 54.6 59 53 57.5 58.7 46.7 63 42.2c1-1.1 5.7-5.6 9.5-8.3 2.2-1.5 4.2-2.6 5-2.1.9.6.4 2.2-.5 4.3z" fill="#f26822"/></svg>